<?xml version="1.0" encoding="UTF-8"?>
<svg id="Lag_1" data-name="Lag 1" xmlns="http://www.w3.org/2000/svg" viewBox="0 0 304.42 76.83">
  <defs>
    <style>
      .cls-1 {
        fill: #151e2b;
      }
    </style>
  </defs>
  <text/>
  <path class="cls-1" d="M108.57,72.83c-.81.98-1.83,1.46-3,1.46-2.17,0-3.81-1.81-3.81-3.92s1.68-3.89,3.84-3.89c1.2,0,2.23.52,2.97,1.55v-4.23h.95v10.31h-.95v-1.27ZM102.74,70.4c0,1.61,1.26,3.03,2.93,3.03,1.53,0,2.96-1.15,2.96-3,0-1.72-1.27-3.03-2.94-3.03s-2.94,1.4-2.94,3Z"/>
  <path class="cls-1" d="M112.81,64.39c0,.43-.36.8-.8.8s-.78-.36-.78-.8.36-.78.78-.78.8.35.8.78ZM111.54,66.67h.95v7.44h-.95v-7.44Z"/>
  <path class="cls-1" d="M115.42,68c.77-1.01,1.69-1.53,2.79-1.53,1.62,0,2.76,1.12,2.76,3.46v4.17h-.95v-4.05c0-1.75-.55-2.72-1.99-2.72-.8,0-1.46.35-1.96,1.01-.56.73-.64,1.46-.64,2.63v3.12h-.95v-7.44h.95v1.33Z"/>
  <path class="cls-1" d="M127.85,68.03c.74-1.04,1.76-1.55,2.96-1.55,2.17,0,3.85,1.78,3.85,3.89s-1.64,3.92-3.82,3.92c-1.16,0-2.17-.48-2.98-1.46v3.99h-.95v-10.16h.95v1.36ZM127.78,70.43c0,1.85,1.43,3,2.96,3,1.65,0,2.94-1.4,2.94-3.03s-1.23-3-2.94-3-2.96,1.3-2.96,3.03Z"/>
  <path class="cls-1" d="M137.07,67.75c.56-.81,1.16-1.27,1.92-1.27.43,0,.66.14.85.25l-.5.81c-.11-.06-.29-.14-.5-.14-.7,0-1.33.6-1.61,1.62-.13.48-.15,1.25-.15,2.26v2.83h-1.01v-7.44h1.01v1.08Z"/>
  <path class="cls-1" d="M148,70.41c0,2.12-1.64,3.89-3.88,3.89s-3.88-1.78-3.88-3.89,1.65-3.94,3.88-3.94,3.88,1.81,3.88,3.94ZM141.23,70.43c0,1.62,1.22,2.96,2.9,2.96s2.9-1.33,2.9-2.96-1.32-3.03-2.9-3.03-2.9,1.37-2.9,3.03Z"/>
  <path class="cls-1" d="M150.21,65.51c0-1.21.29-1.92,1.51-1.92.41,0,.78.11,1.09.21v.94c-.22-.1-.52-.22-.9-.22-.78,0-.76.48-.76,1.15v1.01h1.57v.84h-1.57v6.6h-.95v-6.6h-.98v-.84h.98v-1.16Z"/>
  <path class="cls-1" d="M154.79,70.47c.04,1.71,1.21,2.96,2.8,2.96s2.3-.88,2.84-1.78l.8.42c-.76,1.48-1.92,2.23-3.54,2.23-2.47,0-3.88-1.89-3.88-3.88s1.5-3.94,3.82-3.94c2.12,0,3.82,1.53,3.85,3.99h-6.7ZM160.44,69.63c-.39-1.54-1.5-2.23-2.79-2.23s-2.33.71-2.76,2.23h5.55Z"/>
  <path class="cls-1" d="M163.16,72.55c.48.53,1,.83,1.56.83.73,0,1.37-.53,1.37-1.23,0-.43-.25-.84-.62-1.04-1.71-.95-2.58-1.36-2.58-2.66,0-1.18.91-1.97,2.04-1.97.81,0,1.43.39,2.06,1.01l-.62.63c-.45-.43-.9-.71-1.5-.71s-1.12.43-1.12,1c0,.38.24.8.57.99,1.71,1,2.66,1.37,2.66,2.72,0,1.16-.9,2.2-2.24,2.2-.83,0-1.67-.38-2.2-1.06l.6-.69Z"/>
  <path class="cls-1" d="M168.59,72.55c.48.53,1,.83,1.56.83.73,0,1.37-.53,1.37-1.23,0-.43-.25-.84-.62-1.04-1.71-.95-2.58-1.36-2.58-2.66,0-1.18.91-1.97,2.04-1.97.81,0,1.43.39,2.06,1.01l-.62.63c-.45-.43-.9-.71-1.5-.71s-1.12.43-1.12,1c0,.38.24.8.57.99,1.71,1,2.66,1.37,2.66,2.72,0,1.16-.9,2.2-2.24,2.2-.83,0-1.67-.38-2.2-1.06l.6-.69Z"/>
  <path class="cls-1" d="M175.26,64.39c0,.43-.36.8-.8.8s-.79-.36-.79-.8.36-.78.79-.78.8.35.8.78ZM174,66.67h.95v7.44h-.95v-7.44Z"/>
  <path class="cls-1" d="M184.33,70.41c0,2.12-1.64,3.89-3.88,3.89s-3.88-1.78-3.88-3.89,1.65-3.94,3.88-3.94,3.88,1.81,3.88,3.94ZM177.55,70.43c0,1.62,1.22,2.96,2.9,2.96s2.9-1.33,2.9-2.96-1.32-3.03-2.9-3.03-2.9,1.37-2.9,3.03Z"/>
  <path class="cls-1" d="M187.05,68c.77-1.01,1.69-1.53,2.79-1.53,1.62,0,2.76,1.12,2.76,3.46v4.17h-.95v-4.05c0-1.75-.55-2.72-1.99-2.72-.8,0-1.46.35-1.96,1.01-.56.73-.64,1.46-.64,2.63v3.12h-.95v-7.44h.95v1.33Z"/>
  <path class="cls-1" d="M195.26,70.47c.04,1.71,1.2,2.96,2.8,2.96s2.3-.88,2.84-1.78l.8.42c-.76,1.48-1.92,2.23-3.54,2.23-2.46,0-3.88-1.89-3.88-3.88s1.5-3.94,3.82-3.94c2.12,0,3.82,1.53,3.85,3.99h-6.7ZM200.91,69.63c-.39-1.54-1.5-2.23-2.79-2.23s-2.33.71-2.76,2.23h5.55Z"/>
  <path class="cls-1" d="M203.59,63.8h.95v10.31h-.95v-10.31Z"/>
  <path class="cls-1" d="M206.39,63.8h.95v10.31h-.95v-10.31Z"/>
  <path class="cls-1" d="M209.96,70.47c.04,1.71,1.2,2.96,2.8,2.96s2.3-.88,2.84-1.78l.8.42c-.76,1.48-1.92,2.23-3.54,2.23-2.47,0-3.88-1.89-3.88-3.88s1.5-3.94,3.82-3.94c2.12,0,3.82,1.53,3.85,3.99h-6.7ZM215.61,69.63c-.39-1.54-1.5-2.23-2.79-2.23s-2.33.71-2.76,2.23h5.55Z"/>
  <path class="cls-1" d="M221.71,64.05h1.09l3.33,7.77,3.39-7.77h1.09l-4.37,10.06h-.22l-4.31-10.06Z"/>
  <path class="cls-1" d="M231.54,64.05h1.09l3.33,7.77,3.39-7.77h1.09l-4.37,10.06h-.22l-4.31-10.06Z"/>
  <path class="cls-1" d="M245.99,66.07c-.55-.71-1.02-1.23-1.85-1.23-.87,0-1.36.62-1.36,1.28,0,.55.32,1.12.9,1.55,1.89,1.4,3.28,2.37,3.28,3.99,0,1.42-1.19,2.7-2.83,2.7-1.39,0-2.3-.77-3.04-2.13l.85-.52c.6,1.11,1.33,1.67,2.1,1.67,1.05,0,1.86-.77,1.86-1.71,0-1.11-1.04-1.74-3.32-3.59-.48-.38-.85-1.18-.85-1.93,0-1.39,1.08-2.35,2.44-2.35,1.23,0,1.98.74,2.63,1.64l-.81.63Z"/>
  <path class="cls-1" d="M248.32,69.91h3.77v.84h-3.77v-.84Z"/>
  <path class="cls-1" d="M254.55,68.03c.74-1.04,1.76-1.55,2.96-1.55,2.17,0,3.85,1.78,3.85,3.89s-1.64,3.92-3.82,3.92c-1.16,0-2.17-.48-2.98-1.46v3.99h-.95v-10.16h.95v1.36ZM254.48,70.43c0,1.85,1.43,3,2.96,3,1.65,0,2.94-1.4,2.94-3.03s-1.23-3-2.94-3-2.96,1.3-2.96,3.03Z"/>
  <path class="cls-1" d="M269.61,66.67h.94v7.44h-.94v-1.27c-.81.98-1.83,1.46-3,1.46-2.17,0-3.81-1.81-3.81-3.92s1.68-3.89,3.84-3.89c1.21,0,2.23.52,2.97,1.55v-1.36ZM263.78,70.4c0,1.61,1.26,3.03,2.93,3.03,1.53,0,2.97-1.15,2.97-3,0-1.72-1.29-3.03-2.96-3.03s-2.94,1.4-2.94,3Z"/>
  <path class="cls-1" d="M273.33,67.75c.56-.81,1.16-1.27,1.92-1.27.43,0,.66.14.85.25l-.5.81c-.11-.06-.29-.14-.5-.14-.7,0-1.33.6-1.61,1.62-.13.48-.15,1.25-.15,2.26v2.83h-1.01v-7.44h1.01v1.08Z"/>
  <path class="cls-1" d="M277.77,63.9h.95v2.77h1.53v.84h-1.53v6.6h-.95v-6.6h-1.32v-.84h1.32v-2.77Z"/>
  <path class="cls-1" d="M282.61,68c.77-1.01,1.7-1.53,2.79-1.53,1.62,0,2.76,1.12,2.76,3.46v4.17h-.95v-4.05c0-1.75-.55-2.72-1.99-2.72-.8,0-1.46.35-1.96,1.01-.56.73-.64,1.46-.64,2.63v3.12h-.95v-7.44h.95v1.33Z"/>
  <path class="cls-1" d="M290.83,70.47c.04,1.71,1.2,2.96,2.8,2.96s2.3-.88,2.84-1.78l.8.42c-.76,1.48-1.92,2.23-3.54,2.23-2.47,0-3.88-1.89-3.88-3.88s1.5-3.94,3.82-3.94c2.12,0,3.82,1.53,3.85,3.99h-6.7ZM296.47,69.63c-.39-1.54-1.5-2.23-2.79-2.23s-2.33.71-2.76,2.23h5.55Z"/>
  <path class="cls-1" d="M299.93,67.75c.56-.81,1.16-1.27,1.92-1.27.43,0,.66.14.85.25l-.5.81c-.11-.06-.29-.14-.5-.14-.7,0-1.33.6-1.61,1.62-.13.48-.15,1.25-.15,2.26v2.83h-1.01v-7.44h1.01v1.08Z"/>
  <path class="cls-1" d="M23.28,49.33c-2.91,2.73-5.46,4.22-9.62,4.22-8.25,0-13.66-7.01-13.66-15.32,0-9.68,7.78-17.88,16.92-17.88,3.86,0,7.3,1.84,9.38,5.23l.59-4.39h7.72l-4.1,31.53h-7.66l.42-3.38ZM25.42,35.79c0-4.75-3.03-8.31-7.9-8.31-5.4,0-9.86,4.39-9.86,10.93,0,4.99,3.15,8.25,7.78,8.25,6.35,0,9.98-5.52,9.98-10.87Z"/>
  <path class="cls-1" d="M40.91,42.03c2.14,2.85,4.69,4.33,7.13,4.33,1.96,0,3.33-1.13,3.33-2.55,0-.95-.71-1.9-1.66-2.61-5.23-3.92-9.62-6.53-9.62-11.88s4.45-8.97,10.1-8.97c3.74,0,7.3,1.78,9.68,5.23l-3.68,5.88c-1.78-2.67-3.92-3.98-5.88-3.98-1.43,0-2.55.77-2.55,1.78,0,.83.65,1.6,1.37,2.14,5.58,4.1,9.92,6.71,9.92,12.35,0,4.87-4.28,9.74-11.28,9.74-4.63,0-7.78-1.84-11.58-5.88l4.75-5.58Z"/>
  <path class="cls-1" d="M66.51,42.03c2.14,2.85,4.69,4.33,7.13,4.33,1.96,0,3.33-1.13,3.33-2.55,0-.95-.71-1.9-1.66-2.61-5.23-3.92-9.62-6.53-9.62-11.88s4.45-8.97,10.1-8.97c3.74,0,7.3,1.78,9.68,5.23l-3.68,5.88c-1.78-2.67-3.92-3.98-5.88-3.98-1.42,0-2.55.77-2.55,1.78,0,.83.65,1.6,1.37,2.14,5.58,4.1,9.92,6.71,9.92,12.35,0,4.87-4.28,9.74-11.28,9.74-4.63,0-7.78-1.84-11.58-5.88l4.75-5.58Z"/>
  <path class="cls-1" d="M92.81,21.18h7.6l-4.22,31.53h-7.72l4.33-31.53ZM102.37,13.04c0,2.67-2.14,4.81-4.81,4.81s-4.75-2.14-4.75-4.81,2.08-4.81,4.75-4.81,4.81,2.14,4.81,4.81Z"/>
  <path class="cls-1" d="M105.82,42.03c2.14,2.85,4.69,4.33,7.13,4.33,1.96,0,3.33-1.13,3.33-2.55,0-.95-.71-1.9-1.66-2.61-5.23-3.92-9.62-6.53-9.62-11.88s4.45-8.97,10.1-8.97c3.74,0,7.3,1.78,9.68,5.23l-3.68,5.88c-1.78-2.67-3.92-3.98-5.88-3.98-1.43,0-2.55.77-2.55,1.78,0,.83.65,1.6,1.37,2.14,5.58,4.1,9.92,6.71,9.92,12.35,0,4.87-4.28,9.74-11.28,9.74-4.63,0-7.78-1.84-11.58-5.88l4.75-5.58Z"/>
  <path class="cls-1" d="M134.73,9.42h7.66l-1.6,11.76h4.93l-.95,6.65h-4.87l-3.39,24.88h-7.72l3.38-24.88h-3.8l.89-6.65h3.8l1.66-11.76Z"/>
  <path class="cls-1" d="M169.71,49.33c-2.91,2.73-5.46,4.22-9.62,4.22-8.25,0-13.66-7.01-13.66-15.32,0-9.68,7.78-17.88,16.92-17.88,3.86,0,7.3,1.84,9.38,5.23l.59-4.39h7.72l-4.1,31.53h-7.66l.42-3.38ZM171.85,35.79c0-4.75-3.03-8.31-7.9-8.31-5.4,0-9.86,4.39-9.86,10.93,0,4.99,3.15,8.25,7.78,8.25,6.35,0,9.98-5.52,9.98-10.87Z"/>
  <path class="cls-1" d="M196.25,24.33c2.91-2.61,5.82-3.98,9.2-3.98,5.46,0,9.38,3.86,9.38,9.32,0,1.72-.3,3.62-.54,5.34l-2.38,17.7h-7.66l2.26-17.28c.18-1.25.36-2.67.36-3.86,0-2.73-1.72-4.1-4.1-4.1-1.84,0-3.98,1.01-5.4,2.67-2.26,2.61-2.79,6.41-3.44,11.4l-1.48,11.17h-7.72l4.28-31.53h7.72l-.47,3.15Z"/>
  <path class="cls-1" d="M250.23,46.95c-3.5,4.16-8.73,6.59-15.03,6.59-9.86,0-15.86-5.94-15.86-14.85,0-10.33,7.9-18.35,18.77-18.35,6.24,0,10.81,2.44,13.9,7.3l-6.59,3.56c-1.96-2.43-4.28-3.44-7.48-3.44-6.77,0-10.93,4.99-10.93,10.57,0,4.81,3.21,8.08,8.61,8.08,3.5,0,6.59-1.31,8.49-3.74l6.12,4.28Z"/>
  <path class="cls-1" d="M262.05,39.17c.18,4.28,2.97,7.19,7.84,7.19,3.15,0,5.4-.95,7.72-2.91l6.83,3.56c-3.15,4.04-8.25,6.47-14.49,6.47-9.74,0-15.56-5.88-15.56-14.79,0-10.27,7.9-18.29,17.76-18.29s15.38,6.89,15.38,15.62c0,1.13-.18,2.26-.3,3.15h-25.18ZM279.57,33.53c-1.19-3.98-4.04-6-7.84-6s-6.95,2.14-8.55,6h16.39Z"/>
  <path class="cls-1" d="M304.42,47.59c0,3.34-2.67,6.16-6.09,6.16s-6.09-2.82-6.09-6.16,2.75-6.09,6.09-6.09,6.09,2.75,6.09,6.09Z"/>
</svg>