<?xml version="1.0" encoding="UTF-8"?>
<svg id="Lag_1" data-name="Lag 1" xmlns="http://www.w3.org/2000/svg" viewBox="0 0 102.65 119.6">
  <defs>
    <style>
      .cls-1 {
        fill: #151e2b;
      }
    </style>
  </defs>
  <g>
    <path class="cls-1" d="M0,82h8.85l5.74,20.39,11.75-20.39h9.82l-21.29,36.71h-4.36L0,82Z"/>
    <path class="cls-1" d="M38.09,82h8.85l5.74,20.39,11.75-20.39h9.82l-21.29,36.71h-4.36l-10.51-36.71Z"/>
    <path class="cls-1" d="M78.88,106.26c2.49,3.32,5.46,5.05,8.3,5.05,2.28,0,3.87-1.31,3.87-2.97,0-1.11-.83-2.21-1.94-3.04-6.08-4.57-11.2-7.61-11.2-13.83s5.18-10.44,11.75-10.44c4.36,0,8.5,2.08,11.27,6.09l-4.29,6.84c-2.07-3.11-4.56-4.63-6.84-4.63-1.66,0-2.97.9-2.97,2.07,0,.97.76,1.87,1.59,2.49,6.5,4.77,11.55,7.81,11.55,14.38,0,5.67-4.98,11.34-13.13,11.34-5.39,0-9.06-2.14-13.48-6.84l5.53-6.5Z"/>
  </g>
  <g>
    <path class="cls-1" d="M54.6,63.49c-6.82,5.98-12.81,9.24-22.56,9.24C12.67,72.72,0,57.37,0,39.16,0,17.95,18.25,0,39.69,0c9.05,0,17.13,4.03,22.01,11.45l1.39-9.63h18.11l-9.61,69.08h-17.97l.97-7.41ZM59.61,33.82c0-10.41-7.1-18.21-18.52-18.21-12.67,0-23.12,9.63-23.12,23.94,0,10.93,7.38,18.08,18.24,18.08,14.9,0,23.4-12.1,23.4-23.81Z"/>
    <path class="cls-1" d="M102.65,61.8c0,5.85-5.01,10.8-11.42,10.8s-11.42-4.94-11.42-10.8,5.15-10.67,11.42-10.67,11.42,4.81,11.42,10.67Z"/>
  </g>
</svg>