<?xml version="1.0" encoding="UTF-8"?>
<svg id="Lag_1" data-name="Lag 1" xmlns="http://www.w3.org/2000/svg" viewBox="0 0 434.2 45.52">
  <defs>
    <style>
      .cls-1 {
        fill: #00b67a;
      }
    </style>
  </defs>
  <path d="M116.73,41.1c-2.91,2.73-5.46,4.22-9.62,4.22-8.25,0-13.66-7.01-13.66-15.32,0-9.68,7.78-17.88,16.92-17.88,3.86,0,7.3,1.84,9.38,5.23l.59-4.39h7.72l-4.1,31.53h-7.66l.42-3.38h0ZM118.87,27.56c0-4.75-3.03-8.31-7.9-8.31-5.4,0-9.86,4.39-9.86,10.93,0,4.99,3.15,8.25,7.78,8.25,6.35,0,9.98-5.52,9.98-10.87Z"/>
  <path d="M134.36,33.8c2.14,2.85,4.69,4.33,7.13,4.33,1.96,0,3.33-1.13,3.33-2.55,0-.95-.71-1.9-1.66-2.61-5.23-3.92-9.62-6.53-9.62-11.88s4.45-8.97,10.1-8.97c3.74,0,7.3,1.78,9.68,5.23l-3.68,5.88c-1.78-2.67-3.92-3.98-5.88-3.98-1.43,0-2.55.77-2.55,1.78,0,.83.65,1.6,1.37,2.14,5.58,4.1,9.92,6.71,9.92,12.35,0,4.87-4.28,9.74-11.28,9.74-4.63,0-7.78-1.84-11.58-5.88l4.75-5.58h-.03Z"/>
  <path d="M159.96,33.8c2.14,2.85,4.69,4.33,7.13,4.33,1.96,0,3.33-1.13,3.33-2.55,0-.95-.71-1.9-1.66-2.61-5.23-3.92-9.62-6.53-9.62-11.88s4.45-8.97,10.1-8.97c3.74,0,7.3,1.78,9.68,5.23l-3.68,5.88c-1.78-2.67-3.92-3.98-5.88-3.98-1.42,0-2.55.77-2.55,1.78,0,.83.65,1.6,1.37,2.14,5.58,4.1,9.92,6.71,9.92,12.35,0,4.87-4.28,9.74-11.28,9.74-4.63,0-7.78-1.84-11.58-5.88l4.75-5.58h-.03Z"/>
  <path d="M186.26,12.95h7.6l-4.22,31.53h-7.72l4.33-31.53h.01ZM195.82,4.81c0,2.67-2.14,4.81-4.81,4.81s-4.75-2.14-4.75-4.81,2.08-4.81,4.75-4.81,4.81,2.14,4.81,4.81Z"/>
  <path d="M199.27,33.8c2.14,2.85,4.69,4.33,7.13,4.33,1.96,0,3.33-1.13,3.33-2.55,0-.95-.71-1.9-1.66-2.61-5.23-3.92-9.62-6.53-9.62-11.88s4.45-8.97,10.1-8.97c3.74,0,7.3,1.78,9.68,5.23l-3.68,5.88c-1.78-2.67-3.92-3.98-5.88-3.98-1.43,0-2.55.77-2.55,1.78,0,.83.65,1.6,1.37,2.14,5.58,4.1,9.92,6.71,9.92,12.35,0,4.87-4.28,9.74-11.28,9.74-4.63,0-7.78-1.84-11.58-5.88l4.75-5.58h-.03Z"/>
  <path d="M228.18,1.19h7.66l-1.6,11.76h4.93l-.95,6.65h-4.87l-3.39,24.88h-7.72l3.38-24.88h-3.8l.89-6.65h3.8l1.66-11.76h0Z"/>
  <path d="M263.16,41.1c-2.91,2.73-5.46,4.22-9.62,4.22-8.25,0-13.66-7.01-13.66-15.32,0-9.68,7.78-17.88,16.92-17.88,3.86,0,7.3,1.84,9.38,5.23l.59-4.39h7.72l-4.1,31.53h-7.66l.42-3.38h.01ZM265.3,27.56c0-4.75-3.03-8.31-7.9-8.31-5.4,0-9.86,4.39-9.86,10.93,0,4.99,3.15,8.25,7.78,8.25,6.35,0,9.98-5.52,9.98-10.87Z"/>
  <path d="M289.7,16.1c2.91-2.61,5.82-3.98,9.2-3.98,5.46,0,9.38,3.86,9.38,9.32,0,1.72-.3,3.62-.54,5.34l-2.38,17.7h-7.66l2.26-17.28c.18-1.25.36-2.67.36-3.86,0-2.73-1.72-4.1-4.1-4.1-1.84,0-3.98,1.01-5.4,2.67-2.26,2.61-2.79,6.41-3.44,11.4l-1.48,11.17h-7.72l4.28-31.53h7.72l-.47,3.15h0Z"/>
  <path d="M343.68,38.72c-3.5,4.16-8.73,6.59-15.03,6.59-9.86,0-15.86-5.94-15.86-14.85,0-10.33,7.9-18.35,18.77-18.35,6.24,0,10.81,2.44,13.9,7.3l-6.59,3.56c-1.96-2.43-4.28-3.44-7.48-3.44-6.77,0-10.93,4.99-10.93,10.57,0,4.81,3.21,8.08,8.61,8.08,3.5,0,6.59-1.31,8.49-3.74l6.12,4.28h0Z"/>
  <path d="M355.5,30.94c.18,4.28,2.97,7.19,7.84,7.19,3.15,0,5.4-.95,7.72-2.91l6.83,3.56c-3.15,4.04-8.25,6.47-14.49,6.47-9.74,0-15.56-5.88-15.56-14.79,0-10.27,7.9-18.29,17.76-18.29s15.38,6.89,15.38,15.62c0,1.13-.18,2.26-.3,3.15h-25.18ZM373.02,25.3c-1.19-3.98-4.04-6-7.84-6s-6.95,2.14-8.55,6h16.39Z"/>
  <path d="M397.87,39.36c0,3.34-2.67,6.16-6.09,6.16s-6.09-2.82-6.09-6.16,2.75-6.09,6.09-6.09,6.09,2.75,6.09,6.09Z"/>
  <rect class="cls-1" x="413.53" y="11.12" width="10.18" height="31.15" rx="5.09" ry="5.09" transform="translate(837.25 53.38) rotate(180)"/>
  <rect class="cls-1" x="413.53" y="11.12" width="10.18" height="31.15" rx="5.09" ry="5.09" transform="translate(445.31 -391.94) rotate(90)"/>
  <g>
    <path d="M0,12.95h7.65l4.96,17.52,10.17-17.52h8.49l-18.41,31.53h-3.77L0,12.95Z"/>
    <path d="M33.5,12.95h7.65l4.96,17.52,10.17-17.52h8.49l-18.41,31.53h-3.77l-9.09-31.53Z"/>
    <path d="M69.33,33.79c2.15,2.85,4.72,4.34,7.18,4.34,1.97,0,3.35-1.13,3.35-2.55,0-.95-.72-1.9-1.67-2.62-5.26-3.92-9.69-6.53-9.69-11.88s4.48-8.97,10.17-8.97c3.77,0,7.35,1.78,9.75,5.22l-3.71,5.88c-1.79-2.67-3.95-3.98-5.92-3.98-1.43,0-2.57.77-2.57,1.78,0,.83.66,1.61,1.38,2.14,5.62,4.1,9.98,6.71,9.98,12.36,0,4.87-4.31,9.74-11.36,9.74-4.66,0-7.83-1.84-11.66-5.88l4.78-5.59Z"/>
  </g>
</svg>